<svg version="1.2" xmlns="http://www.w3.org/2000/svg" viewBox="0 0 4736 1024" width="4736" height="1024"><style>.a{fill:#fff}</style><path class="a" d="m732.7 943c-51.1 15.5-102.3 24.6-154.7 28.2-99.7 7-197.5-1.3-293-31.7-20.6-6.6-40.5-14.9-60-24.5-9.8-4.8-14.4-12.4-12.9-23 9.7-71.8 19.1-143.6 39.8-213.4 17.5-59.5 58.4-96.4 113.9-119.5 17.2-7.1 34.5-13.8 51.7-20.9 6.4-2.6 12.8-5.4 18.7-8.9 11.3-6.7 17.1-17 16.8-30.1-0.3-12.9-9.5-18.8-20-22.8-25-9.5-47.2-23.2-65.9-42.5-35.5-36.7-55.8-80.3-62.3-131-4.6-35.1-0.5-68.7 11.4-101.8 5.5-15.2 14.3-28.5 24.8-42.3-4.4-1.3-8.1-2.5-12.9-3.9 1.5-12.4 9.6-21 19.3-25.4 19.5-8.9 34.4-21.7 45.6-39.9 4.2-6.7 10.5-13.8 19.6-13.7 5.3 3.2 0.7 7.8 3.4 11.5 26.2-17.9 54.7-29.8 85.9-34.4 65.6-9.4 125.3 5.6 179.5 43.3 9.9 6.9 19.8 13.9 30.2 20 19.9 11.6 40.4 20.3 63.5 9.8 12 19.3 2.2 41.6-25.5 58.4 2 8.5 4.4 17.1 6.2 25.8 6.2 30.7-2.1 60-9.4 89.3-1.7 6.7-3.9 13.3-5.4 20.1-4.4 20.4-1 28.7 16.3 40.6 19.9 13.6 21.4 32.1 3 46.9-5.7 4.5-5.9 8.5-3.8 14.4 3.2 9.1 3.8 17.9-5.3 24.4-2.8 2-3.3 5-3 8.1 1 9.5-3.3 16.7-9.7 23-3.9 3.7-5.9 8.1-6.8 13.6-4 26.2-17.2 38.1-44 38.8-17.2 0.5-34.5-0.2-51.8-0.3-3.9 0-7.8-0.1-11.7 0.2-3.7 0.3-6.9 1.9-7.3 6-0.5 3.6 2.2 5.6 5.1 6.8 5.9 2.4 12.1 4.6 18.2 6.8 23.1 8.4 46 17.4 67.8 29.1 39 20.9 59.5 55.5 70.5 96.5 16.9 63.1 25.9 127.6 31.9 192.5 0.1 1.3 0.1 2.6 0.3 3.9 4.5 38.6 3.3 40.9-33.2 55.6-14.4 5.8-29.2 10.7-44.8 16.4zm-334.4-255.8c-24.7 45.6-29.5 94.4-21.2 144.6 3.8 23.2 18.4 30.6 41 23.6 14.6-4.4 27.4-12.6 40.7-19.8 34.3-18.6 46.4-47.9 41.7-85.6-3.1-24.7 4.3-40.4 23.1-50.5 15.4 13.1 26.1 28.1 22 50.2-1.4 7.5-0.2 15.5-0.1 23.3 0.2 18.8 7.6 34.5 21.5 46.8 17.5 15.8 38 27.2 60 35.2 22.8 8.2 38.1-0.2 41.6-24 7.4-50.2 4.4-99.4-21.7-144.5-16.9-29.1-39.6-52.4-73.3-62.1-10-2.9-18.4-0.7-19.5 10.3-1.9 19.8-2.2 39.7 5.2 58.9 3.3 8.5 7.3 12.1 16.2 6.3 6.6-4.3 14.3-6.4 22.3-5.6 6.6 0.6 12 3.5 12.1 10.9 0 6.9-4.9 9.5-11 10.5-5.3 0.8-11.5-0.9-15.9 5.9 8.7 10.5 21.1 15.6 32.9 21.5 6.4 3.2 15.6 5.7 11 15.4-4.3 8.9-12.6 4.9-19.4 2.3-12.2-4.4-22.9-11.7-34.7-19.4 2.2 20.2 14 34 25.2 48.1 4.5 5.7 8.2 12.6 1 18.2-6.8 5.3-12.3-0.1-16.5-5.2-14.3-17.6-26.8-36.3-28.5-59.8-1.2-16.6-4.8-32-12.7-46.8-6.1-11.4-7.9-24.6-7.7-37.8 0.2-19.4 0.4-38.9 0.7-58.3 0.2-8.4-3.1-13.3-12.1-13-8.5 0.3-10.9 5.6-10.7 13.1 0.3 15.1 0.6 30.2 1 45.4 0.5 20.1-1 40.1-10.9 57.8-6.1 11.1-8 22.1-8.7 34.4-1.4 26.6-14.6 48.4-31.8 67.9-4 4.6-9.6 6.6-14.8 1.7-4.6-4.2-4.1-9.4-0.8-14.1 2.5-3.5 5.4-6.8 8.1-10.1 9.7-11.8 17.1-24.5 19.4-41.5-13.9 9.6-26.6 17.7-41.4 21.6-5.2 1.4-10.7 1.6-13-4.9-2.3-6.2 1.1-10 6-12.6 5-2.6 10.3-4.6 15.2-7.4 8.2-4.8 18.1-7.9 21.9-17.8-3.2-4.2-7.3-4.1-11.1-4.4-8-0.7-15.9-2.5-14.2-12.5 1.5-9.2 9.9-9.3 17.6-9.1 9.7 0.2 17.5 6.5 26.9 9.1 13.3-19.1 12.1-40.4 11.4-61.5-0.6-17.5-6.4-21.7-23-16.7-32.3 9.7-52.8 33.2-71 62z"/><path class="a" d="m1339.9 827.7c0-24.2-16.8-43.3-50.6-43.3h-51.3v139.8h27.8v-53.6h23.5c36.2 0 50.6-21.8 50.6-42.9zm-74.1 20.1v-40.6h22.1c16.1 0 22.8 7.7 22.8 20.5 0 12.4-6.7 20.1-22.8 20.1zm196.5 41.6h-30.2c-3.7 7.3-10.4 13.4-22.4 13.4-13.8 0-25.2-9.1-26.5-25.5h81.1c0.7-3.7 0.7-7.4 0.7-11.1 0-32.8-22.5-55-54.7-55-32.8 0-55.6 22.5-55.6 57.4 0 34.8 23.4 57.3 55.6 57.3 27.5 0 46-16.1 52-36.5zm-52.6-55c14.4 0 26.1 9.4 26.4 23.8h-52.6c2-15.1 12.7-23.8 26.2-23.8zm65.7 33.8c0 34.9 22.4 57.7 50.6 57.7 17.4 0 29.8-8.1 36.5-18.1v16.4h28.5v-148.1h-28.5v52.6c-7.7-10.4-21.4-17.5-36.2-17.5-28.5 0-50.9 22.5-50.9 57zm87.5 0.4c0 21.1-14.1 32.8-29.5 32.8-15.1 0-29.2-12-29.2-33.2 0-21.1 14.1-32.1 29.2-32.1 15.4 0 29.5 11.7 29.5 32.5zm57.3 55.6h27.8v-110.9h-27.8zm14.1-124.4c9.7 0 17-7 17-16.4 0-9.1-7.3-16.5-17-16.5-10.1 0-17.1 7.4-17.1 16.5 0 9.4 7 16.4 17.1 16.4zm35.5 68.4c0 34.5 22.4 57.6 50.6 57.6 17.4 0 30.2-8.3 36.9-18.1v16.5h28.1v-111h-28.1v15.8c-6.7-9.4-18.8-17.8-36.9-17.8-28.2 0-50.6 22.5-50.6 57zm87.5 0.3c0 21.1-14.1 32.9-29.5 32.9-15.1 0-29.2-12.1-29.2-33.2 0-21.1 14.1-32.2 29.2-32.2 15.4 0 29.5 11.4 29.5 32.5zm58.3 21.1c0 25.5 14.1 34.6 35.5 34.6h17.5v-23.8h-13.1c-8.7 0-11.7-3.1-11.7-10.4v-54h24.8v-22.8h-24.8v-27.5h-28.2v27.5h-13.4v22.8h13.4zm100.6-20.8c0-21.4 10-27.8 26.8-27.8h7.4v-29.5c-15.5 0-27.2 7.4-34.2 18.8v-17.1h-27.9v110.9h27.9zm52.6 55.3h27.8v-110.9h-27.8zm14.1-124.4c9.7 0 17.1-7 17.1-16.4 0-9.1-7.4-16.4-17.1-16.4-10.1 0-17.1 7.3-17.1 16.4 0 9.4 7 16.4 17.1 16.4zm35.5 68.7c0 34.9 22.8 57.4 55 57.4 27.5 0 46.2-15.5 52.3-39.3h-30.2c-3.7 10.1-10.7 15.5-22.4 15.5-15.5 0-25.9-11.8-25.9-33.6 0-21.4 10.4-33.2 25.9-33.2 11.7 0 19.1 6.1 22.4 15.5h30.2c-6.1-25.2-24.8-39.6-52.3-39.6-32.2 0-55 22.5-55 57.3zm281.3 17.8c0-16.4-11.1-31.2-27.2-33.9 13.8-4.3 23.8-15 23.8-32.1 0-20.8-16.1-35.9-45.2-35.9h-57.7v139.8h60.3c28.9 0 46-15.8 46-37.9zm-31.9-61.7c0 11.4-7.7 17.5-20.8 17.5h-25.8v-35.2h25.8c13.1 0 20.8 6.3 20.8 17.7zm3.4 58.3c0 11.8-8.1 18.5-21.5 18.5h-28.5v-37.9h27.8c13.5 0 22.2 7.4 22.2 19.4zm80.8-14c0-21.5 10-27.9 26.8-27.9h7.3v-29.5c-15.4 0-27.1 7.4-34.1 18.8v-17.1h-27.9v111h27.9zm159.5-0.4c0-34.8-24.8-57.3-57-57.3-32.2 0-57 22.5-57 57.3 0 34.9 24.2 57.4 56.4 57.4 32.1 0 57.6-22.5 57.6-57.4zm-85.5 0c0-22.1 13.4-32.8 28.2-32.8 14.7 0 28.5 10.7 28.5 32.8 0 22.2-14.1 32.9-28.8 32.9-15.1 0-27.9-10.7-27.9-32.9zm183.7 55.7h27.9v-65c0-30.9-18.5-47.6-44.3-47.6-14.1 0-26.1 6-33.5 15.4v-13.8h-27.8v111h27.8v-61.4c0-17.7 10-27.4 25.1-27.4 14.8 0 24.8 9.7 24.8 27.4zm49-55.6c0 34.9 22.8 57.3 55 57.3 27.4 0 46.2-15.4 52.2-39.2h-30.1c-3.7 10.1-10.7 15.4-22.5 15.4-15.4 0-25.8-11.7-25.8-33.5 0-21.5 10.4-33.2 25.8-33.2 11.8 0 19.1 6 22.5 15.4h30.1c-6-24.8-24.8-39.5-52.2-39.5-32.2 0-55 22.4-55 57.3zm128 55.6h27.9v-61.3c0-17.8 10-27.5 25.1-27.5 14.7 0 24.8 9.7 24.8 27.5v61.3h27.8v-65c0-30.8-18.1-47.6-43.2-47.6-14.8 0-27.2 6-34.5 15.4v-50.9h-27.9zm130.8 0h27.8v-111.3h-27.8zm14-124c9.8 0 17.1-7.4 17.1-16.5 0-9.4-7.3-16.4-17.1-16.4-10 0-17.1 7-17.1 16.4 0 9.1 7.1 16.5 17.1 16.5zm143.2 89.1h-30.2c-3.7 7.7-10.4 13.8-22.4 13.8-13.8 0-25.2-9.4-26.5-25.8h81.1c0.7-3.7 0.7-7.4 0.7-10.8 0-33.2-22.5-54.9-54.7-54.9-32.8 0-55.6 22.1-55.6 57.3 0 34.8 23.4 57.3 55.6 57.3 27.5 0 45.9-16.4 52-36.9zm-52.6-54.6c14.4 0 26.1 9 26.4 23.8h-52.6c2-15.4 12.7-23.8 26.2-23.8zm69 34.2c0 34.8 22.8 57.3 55 57.3 27.5 0 46.2-15.8 52.3-39.2h-30.2c-3.7 10-10.7 15.1-22.5 15.1-15.4 0-25.8-11.8-25.8-33.2 0-21.8 10.4-33.5 25.8-33.5 11.8 0 19.2 6 22.5 15.4h30.2c-6.1-24.8-24.8-39.2-52.3-39.2-32.2 0-55 22.4-55 57.3zm132.4 21.1c0 25.5 14.1 34.2 35.6 34.2h17.4v-23.5h-13.1c-8.7 0-11.7-3.3-11.7-10.7v-53.6h24.8v-23.2h-24.8v-27.5h-28.2v27.5h-13.4v23.2h13.4zm65.4-21.5c0 34.9 22.4 57.7 50.6 57.7 17.4 0 30.2-8.4 36.9-18.1v16.4h28.1v-111h-28.1v15.8c-6.7-9.4-18.8-17.8-36.9-17.8-28.2 0-50.6 22.5-50.6 57zm87.5 0.3c0 21.2-14.1 32.9-29.5 32.9-15.1 0-29.2-12.1-29.2-33.2 0-21.1 14.1-32.2 29.2-32.2 15.4 0 29.5 11.8 29.5 32.5zm140.1 23.8c-1-40.5-62.4-27.8-62.4-48.2 0-6.4 5.4-10.4 15.8-10.4 11.1 0 17.8 5.7 18.8 14.4h26.8c-1.7-22.1-18.1-36.9-44.9-36.9-27.5 0-43.9 15.1-43.9 33.5 0 40.6 63 27.9 63 47.6 0 6.7-6.1 11.4-17.1 11.4-11.4 0-19.1-6.3-20.1-14.7h-28.2c1 20.8 20.5 36.9 48.3 36.9 27.1 0 43.9-14.5 43.9-33.6zm24.5 31.9h27.8v-111h-27.8zm14.1-124.3c9.7 0 17-7.1 17-16.5 0-9-7.3-16.4-17-16.4-10.1 0-17.1 7.4-17.1 16.4 0 9.4 7 16.5 17.1 16.5zm125.7 92.5c-1-40.6-62.4-27.8-62.4-48.3 0-6.4 5.4-10.7 15.8-10.7 11 0 17.7 6 18.7 14.7h26.9c-1.7-22.1-18.2-36.8-45-36.8-27.5 0-43.9 14.7-43.9 33.1 0 40.9 63 28.2 63 48 0 6.4-6 11.4-17.1 11.4-11.4 0-19.1-6.4-20.1-14.8h-28.1c1 20.8 20.4 36.9 48.2 36.9 27.2 0 44-14.4 44-33.5zm152.5-108.3h-81.1v140.1h81.1v-22.8h-53.3v-37.2h47.2v-22.1h-47.2v-35.2h53.3zm87.5 140.1h31.5l-36.9-55.6 36.5-55.3h-30.1l-20.5 34.2-22.4-34.2h-31.9l36.9 55.3-36.5 55.6h30.1l20.1-34.5zm74.1-94.9v-16.1h-28.1v164h28.1v-68.8c6.7 9.1 19.5 17.5 36.9 17.5 28.2 0 50.6-22.8 50.6-57.7 0-34.5-22.4-57-50.6-57-17.4 0-30.2 8.7-36.9 18.1zm58.7 38.9c0 21.1-14.1 33.2-29.5 33.2-14.8 0-29.2-11.7-29.2-32.8 0-20.8 14.4-32.6 29.2-32.6 15.4 0 29.5 11.1 29.5 32.2zm151.2 21.1h-30.2c-3.7 7.4-10.4 13.4-22.5 13.4-14 0-25.1-9-26.4-25.4h81.1c0.7-3.7 0.7-7.4 0.7-11.1 0-32.8-22.5-55-54.7-55-32.8 0-55.6 22.5-55.6 57.4 0 34.8 23.4 57.3 55.6 57.3 27.5 0 45.9-16.1 52-36.6zm-52.7-54.9c14.5 0 25.9 9.3 26.5 23.8h-52.9c2.3-15.1 13-23.8 26.4-23.8zm104.3 34.5c0-21.5 10.1-27.8 26.8-27.8h7.4v-29.5c-15.4 0-27.2 7.3-34.2 18.7v-17.1h-28.2v111h28.2zm57 20.8c0 25.5 14.1 34.5 35.2 34.5h17.7v-23.8h-13c-8.7 0-11.8-3-11.8-10.4v-53.6h24.8v-23.1h-24.8v-27.5h-28.1v27.5h-13.4v23.1h13.4z"/><path class="a" d="m1238 351.7c0 175 127.8 298.1 296.1 298.1 129.7 0 235.5-68.6 274.6-189.3h-134.8c-27.5 57.2-77.7 84.6-140.5 84.6-102.1 0-175-75.3-175-193.4 0-118.7 72.9-193.3 175-193.3 62.8 0 113 27.7 140.5 83.6h134.8c-39.1-119.7-144.9-189-274.6-189-168.3 0-296.1 123.8-296.1 298.7zm661 293.1h97.7v-213.5c0-62.2 34.1-95.6 87.3-95.6 51.5 0 85.6 33.4 85.6 95.6v213.5h97.7v-226.9c0-106.6-63.6-165.1-150.6-165.1-51.8 0-95 21-120 53.8v-177.9h-97.7zm461.6 0h97.7v-386.8h-97.7zm49.5-432.1c34.1 0 59.9-25.4 59.9-57.2 0-32.1-25.8-57.2-59.9-57.2-34.8 0-59.8 25.1-59.8 57.2 0 31.8 25 57.2 59.8 57.2zm144.5 432.1h97.7v-516.1h-97.7zm168.9-194.7c0 120.7 78 201 176.4 201 60.8 0 104-27.7 127.1-63.5v57.2h98.9v-516.1h-98.9v183.6c-26.5-36.5-75.3-60.2-126.2-60.2-99.3 0-177.3 77.6-177.3 198zm304.1 1.7c0 73.3-48.8 113.7-102.3 113.7-52.6 0-102-42.2-102-115.4 0-73.3 49.4-112 102-112 53.5 0 102.3 40.4 102.3 113.7zm563 61.2c0-57.2-39.2-108-94-117.7 47.5-15.5 83-52.6 83-111.8 0-72.5-56.6-125.4-158.6-125.4h-200.7v486.7h210.1c101 0 160.2-54.2 160.2-131.8zm-110.7-214.8c0 39.9-26.8 60.6-72.6 60.6h-89.3v-122.1h89.3c45.8 0 72.6 22.4 72.6 61.5zm11.7 203.1c0 41.1-27.8 64.2-75.3 64.2h-98.3v-131.5h96.3c47.2 0 77.3 25.4 77.3 67.3zm462.7-343.9h-282.4v487.4h282.4v-79.3h-184.7v-129.1h163.9v-77.6h-163.9v-122.1h184.7zm298.9 487.7h110.5l-128.5-194 126.8-192.3h-104.4l-71.3 119-78.9-119h-110l127.4 192.3-126.1 194h104.7l70.2-120.1z"/></svg>