<svg version="1.2" xmlns="http://www.w3.org/2000/svg" viewBox="0 0 1024 1024" width="1024" height="1024"><style>.a{fill:#1e2c45}</style><path class="a" d="m732.7 943c-51.1 15.5-102.3 24.6-154.7 28.2-99.7 7-197.5-1.3-293-31.7-20.6-6.6-40.5-14.9-60-24.5-9.8-4.8-14.4-12.4-12.9-23 9.7-71.8 19.1-143.6 39.8-213.4 17.5-59.5 58.4-96.4 113.9-119.5 17.2-7.1 34.5-13.8 51.7-20.9 6.4-2.6 12.8-5.4 18.7-8.9 11.3-6.7 17.1-17 16.8-30.1-0.3-12.9-9.5-18.8-20-22.8-25-9.5-47.2-23.2-65.9-42.5-35.5-36.7-55.8-80.3-62.3-131-4.6-35.1-0.5-68.7 11.4-101.8 5.5-15.2 14.3-28.5 24.8-42.3-4.4-1.3-8.1-2.5-12.9-3.9 1.5-12.4 9.6-21 19.3-25.4 19.5-8.9 34.4-21.7 45.6-39.9 4.2-6.7 10.5-13.8 19.6-13.7 5.3 3.2 0.7 7.8 3.4 11.5 26.2-17.9 54.7-29.8 85.9-34.4 65.6-9.4 125.3 5.6 179.5 43.3 9.9 6.9 19.8 13.9 30.2 20 19.9 11.6 40.4 20.3 63.5 9.8 12 19.3 2.2 41.6-25.5 58.4 2 8.5 4.4 17.1 6.2 25.8 6.2 30.7-2.1 60-9.4 89.3-1.7 6.7-3.9 13.3-5.4 20.1-4.4 20.4-1 28.7 16.3 40.6 19.9 13.6 21.4 32.1 3 46.9-5.7 4.5-5.9 8.5-3.8 14.4 3.2 9.1 3.8 17.9-5.3 24.4-2.8 2-3.3 5-3 8.1 1 9.5-3.3 16.7-9.7 23-3.9 3.7-5.9 8.1-6.8 13.6-4 26.2-17.2 38.1-44 38.8-17.2 0.5-34.5-0.2-51.8-0.3-3.9 0-7.8-0.1-11.7 0.2-3.7 0.3-6.9 1.9-7.3 6-0.5 3.6 2.2 5.6 5.1 6.8 5.9 2.4 12.1 4.6 18.2 6.8 23.1 8.4 46 17.4 67.8 29.1 39 20.9 59.5 55.5 70.5 96.5 16.9 63.1 25.9 127.6 31.9 192.5 0.1 1.3 0.1 2.6 0.3 3.9 4.5 38.6 3.3 40.9-33.2 55.6-14.4 5.8-29.2 10.7-44.8 16.4zm-334.4-255.8c-24.7 45.6-29.5 94.4-21.2 144.6 3.8 23.2 18.4 30.6 41 23.6 14.6-4.4 27.4-12.6 40.7-19.8 34.3-18.6 46.4-47.9 41.7-85.6-3.1-24.7 4.3-40.4 23.1-50.5 15.4 13.1 26.1 28.1 22 50.2-1.4 7.5-0.2 15.5-0.1 23.3 0.2 18.8 7.6 34.5 21.5 46.8 17.5 15.8 38 27.2 60 35.2 22.8 8.2 38.1-0.2 41.6-24 7.4-50.2 4.4-99.4-21.7-144.5-16.9-29.1-39.6-52.4-73.3-62.1-10-2.9-18.4-0.7-19.5 10.3-1.9 19.8-2.2 39.7 5.2 58.9 3.3 8.5 7.3 12.1 16.2 6.3 6.6-4.3 14.3-6.4 22.3-5.6 6.6 0.6 12 3.5 12.1 10.9 0 6.9-4.9 9.5-11 10.5-5.3 0.8-11.5-0.9-15.9 5.9 8.7 10.5 21.1 15.6 32.9 21.5 6.4 3.2 15.6 5.7 11 15.4-4.3 8.9-12.6 4.9-19.4 2.3-12.2-4.4-22.9-11.7-34.7-19.4 2.2 20.2 14 34 25.2 48.1 4.5 5.7 8.2 12.6 1 18.2-6.8 5.3-12.3-0.1-16.5-5.2-14.3-17.6-26.8-36.3-28.5-59.8-1.2-16.6-4.8-32-12.7-46.8-6.1-11.4-7.9-24.6-7.7-37.8 0.2-19.4 0.4-38.9 0.7-58.3 0.2-8.4-3.1-13.3-12.1-13-8.5 0.3-10.9 5.6-10.7 13.1 0.3 15.1 0.6 30.2 1 45.4 0.5 20.1-1 40.1-10.9 57.8-6.1 11.1-8 22.1-8.7 34.4-1.4 26.6-14.6 48.4-31.8 67.9-4 4.6-9.6 6.6-14.8 1.7-4.6-4.2-4.1-9.4-0.8-14.1 2.5-3.5 5.4-6.8 8.1-10.1 9.7-11.8 17.1-24.5 19.4-41.5-13.9 9.6-26.6 17.7-41.4 21.6-5.2 1.4-10.7 1.6-13-4.9-2.3-6.2 1.1-10 6-12.6 5-2.6 10.3-4.6 15.2-7.4 8.2-4.8 18.1-7.9 21.9-17.8-3.2-4.2-7.3-4.1-11.1-4.4-8-0.7-15.9-2.5-14.2-12.5 1.5-9.2 9.9-9.3 17.6-9.1 9.7 0.2 17.5 6.5 26.9 9.1 13.3-19.1 12.1-40.4 11.4-61.5-0.6-17.5-6.4-21.7-23-16.7-32.3 9.7-52.8 33.2-71 62z"/></svg>