<svg version="1.2" xmlns="http://www.w3.org/2000/svg" viewBox="0 0 1024 500" width="1024" height="500"><style>.a{fill:#fff}</style><path class="a" d="m44.8 212.4c0 52.3 38.2 89.1 88.5 89.1 38.8 0 70.4-20.5 82.1-56.6h-40.3c-8.2 17.1-23.2 25.3-42 25.3-30.5 0-52.3-22.5-52.3-57.8 0-35.5 21.8-57.8 52.3-57.8 18.8 0 33.8 8.3 42 25h40.3c-11.7-35.8-43.3-56.5-82.1-56.5-50.3 0-88.5 37-88.5 89.3zm197.6 87.6h29.2v-63.8c0-18.6 10.2-28.6 26.1-28.6 15.4 0 25.6 10 25.6 28.6v63.8h29.2v-67.8c0-31.9-19-49.4-45-49.4-15.5 0-28.4 6.3-35.9 16.1v-53.2h-29.2zm138 0h29.2v-115.6h-29.2zm14.8-129.2c10.2 0 17.9-7.6 17.9-17.1 0-9.6-7.7-17.1-17.9-17.1-10.4 0-17.9 7.5-17.9 17.1 0 9.5 7.5 17.1 17.9 17.1zm43.2 129.2h29.2v-154.3h-29.2zm50.5-58.2c0 36.1 23.3 60.1 52.7 60.1 18.2 0 31.1-8.3 38-19v17.1h29.6v-154.3h-29.6v54.9c-7.9-10.9-22.5-18-37.7-18-29.7 0-53 23.2-53 59.2zm90.9 0.5c0 21.9-14.6 34-30.6 34-15.7 0-30.5-12.6-30.5-34.5 0-21.9 14.8-33.5 30.5-33.5 16 0 30.6 12.1 30.6 34zm168.3 18.3c0-17.1-11.7-32.3-28.1-35.2 14.2-4.6 24.8-15.7 24.8-33.4 0-21.7-16.9-37.5-47.4-37.5h-60v145.5h62.8c30.2 0 47.9-16.2 47.9-39.4zm-33.1-64.2c0 11.9-8 18.1-21.7 18.1h-26.7v-36.5h26.7c13.7 0 21.7 6.7 21.7 18.4zm3.5 60.7c0 12.3-8.3 19.2-22.5 19.2h-29.4v-39.3h28.8c14.1 0 23.1 7.6 23.1 20.1zm138.3-102.8h-84.4v145.7h84.4v-23.7h-55.2v-38.6h49v-23.2h-49v-36.5h55.2zm89.4 145.8h33l-38.4-58 37.9-57.5h-31.2l-21.3 35.6-23.6-35.6h-32.9l38.1 57.5-37.7 58h31.3l21-35.9z"/><path class="a" d="m74.6 364.2c0-7.2-5-12.9-15.1-12.9h-15.3v41.7h8.3v-16h7c10.8 0 15.1-6.5 15.1-12.8zm-22.1 6v-12.1h6.6c4.8 0 6.8 2.3 6.8 6.1 0 3.7-2 6-6.8 6zm58.6 12.4h-9c-1.1 2.2-3.1 4-6.7 4-4.1 0-7.5-2.7-7.9-7.6h24.2c0.2-1.1 0.2-2.2 0.2-3.3 0-9.8-6.7-16.4-16.3-16.4-9.8 0-16.6 6.7-16.6 17.1 0 10.4 7 17.1 16.6 17.1 8.2 0 13.7-4.8 15.5-10.9zm-15.7-16.4c4.3 0 7.8 2.8 7.9 7.1h-15.7c0.6-4.5 3.8-7.1 7.8-7.1zm19.6 10.1c0 10.4 6.7 17.2 15.1 17.2 5.2 0 8.9-2.4 10.9-5.4v4.9h8.5v-44.2h-8.5v15.7c-2.3-3.1-6.4-5.2-10.8-5.2-8.5 0-15.2 6.7-15.2 17zm26.1 0.1c0 6.3-4.2 9.8-8.8 9.8-4.5 0-8.7-3.6-8.7-9.9 0-6.3 4.2-9.6 8.7-9.6 4.6 0 8.8 3.5 8.8 9.7zm17.1 16.6h8.3v-33.1h-8.3zm4.2-37.1c2.9 0 5.1-2.1 5.1-4.9 0-2.7-2.2-4.9-5.1-4.9-3 0-5.1 2.2-5.1 4.9 0 2.8 2.1 4.9 5.1 4.9zm10.6 20.4c0 10.3 6.7 17.2 15.1 17.2 5.2 0 9-2.5 11-5.4v4.9h8.4v-33.1h-8.4v4.7c-2-2.8-5.6-5.3-11-5.3-8.4 0-15.1 6.7-15.1 17zm26.1 0.1c0 6.3-4.2 9.8-8.8 9.8-4.5 0-8.7-3.6-8.7-9.9 0-6.3 4.2-9.6 8.7-9.6 4.6 0 8.8 3.4 8.8 9.7zm17.4 6.3c0 7.6 4.2 10.3 10.6 10.3h5.2v-7.1h-3.9c-2.6 0-3.5-0.9-3.5-3.1v-16.1h7.4v-6.8h-7.4v-8.2h-8.4v8.2h-4v6.8h4zm30-6.2c0-6.4 3-8.3 8-8.3h2.2v-8.8c-4.6 0-8.1 2.2-10.2 5.6v-5.1h-8.3v33.1h8.3zm15.7 16.5h8.3v-33.1h-8.3zm4.2-37.1c2.9 0 5.1-2.1 5.1-4.9 0-2.7-2.2-4.9-5.1-4.9-3 0-5.1 2.2-5.1 4.9 0 2.8 2.1 4.9 5.1 4.9zm10.6 20.5c0 10.4 6.8 17.1 16.4 17.1 8.2 0 13.8-4.6 15.6-11.7h-9c-1.1 3-3.2 4.6-6.7 4.6-4.6 0-7.7-3.5-7.7-10 0-6.4 3.1-9.9 7.7-9.9 3.5 0 5.7 1.8 6.7 4.6h9c-1.8-7.5-7.4-11.8-15.6-11.8-9.6 0-16.4 6.7-16.4 17.1zm83.9 5.3c0-4.9-3.3-9.3-8.1-10.1 4.1-1.3 7.1-4.5 7.1-9.6 0-6.2-4.8-10.7-13.5-10.7h-17.2v41.7h18c8.6 0 13.7-4.7 13.7-11.3zm-9.5-18.4c0 3.4-2.3 5.2-6.2 5.2h-7.7v-10.5h7.7c3.9 0 6.2 1.9 6.2 5.3zm1 17.4c0 3.5-2.4 5.5-6.4 5.5h-8.5v-11.3h8.3c4 0 6.6 2.2 6.6 5.8zm24.1-4.2c0-6.4 3-8.3 8-8.3h2.2v-8.8c-4.6 0-8.1 2.2-10.2 5.6v-5.1h-8.3v33.1h8.3zm47.6-0.1c0-10.4-7.4-17.1-17-17.1-9.6 0-17 6.7-17 17.1 0 10.4 7.2 17.1 16.8 17.1 9.6 0 17.2-6.7 17.2-17.1zm-25.5 0c0-6.6 4-9.8 8.4-9.8 4.4 0 8.5 3.2 8.5 9.8 0 6.6-4.2 9.8-8.6 9.8-4.5 0-8.3-3.2-8.3-9.8zm54.8 16.6h8.3v-19.4c0-9.2-5.5-14.2-13.2-14.2-4.2 0-7.8 1.8-10 4.6v-4.1h-8.3v33.1h8.3v-18.3c0-5.3 3-8.2 7.5-8.2 4.4 0 7.4 2.9 7.4 8.2zm14.6-16.6c0 10.4 6.8 17.1 16.4 17.1 8.2 0 13.8-4.6 15.6-11.7h-9c-1.1 3-3.2 4.6-6.7 4.6-4.6 0-7.7-3.5-7.7-10 0-6.4 3.1-9.9 7.7-9.9 3.5 0 5.7 1.8 6.7 4.6h9c-1.8-7.4-7.4-11.8-15.6-11.8-9.6 0-16.4 6.7-16.4 17.1zm38.2 16.6h8.3v-18.3c0-5.3 3-8.2 7.5-8.2 4.4 0 7.4 2.9 7.4 8.2v18.3h8.3v-19.4c0-9.2-5.4-14.2-12.9-14.2-4.4 0-8.1 1.8-10.3 4.6v-15.2h-8.3zm39 0h8.3v-33.2h-8.3zm4.2-37c2.9 0 5.1-2.2 5.1-4.9 0-2.8-2.2-4.9-5.1-4.9-3 0-5.1 2.1-5.1 4.9 0 2.7 2.1 4.9 5.1 4.9zm42.7 26.6h-9c-1.1 2.3-3.1 4.1-6.7 4.1-4.1 0-7.5-2.8-7.9-7.7h24.2c0.2-1.1 0.2-2.2 0.2-3.2 0-9.9-6.7-16.4-16.3-16.4-9.8 0-16.6 6.6-16.6 17.1 0 10.4 7 17.1 16.6 17.1 8.2 0 13.7-4.9 15.5-11zm-15.7-16.3c4.3 0 7.8 2.7 7.9 7.1h-15.7c0.6-4.6 3.8-7.1 7.8-7.1zm20.6 10.2c0 10.4 6.8 17.1 16.4 17.1 8.2 0 13.8-4.7 15.6-11.7h-9c-1.1 3-3.2 4.5-6.7 4.5-4.6 0-7.7-3.5-7.7-9.9 0-6.5 3.1-10 7.7-10 3.5 0 5.7 1.8 6.7 4.6h9c-1.8-7.4-7.4-11.7-15.6-11.7-9.6 0-16.4 6.7-16.4 17.1zm39.5 6.3c0 7.6 4.2 10.2 10.6 10.2h5.2v-7h-3.9c-2.6 0-3.5-1-3.5-3.2v-16h7.4v-6.9h-7.4v-8.2h-8.4v8.2h-4v6.9h4zm19.5-6.4c0 10.4 6.7 17.2 15.1 17.2 5.2 0 9-2.5 11-5.4v4.9h8.4v-33.1h-8.4v4.7c-2-2.8-5.6-5.3-11-5.3-8.4 0-15.1 6.7-15.1 17zm26.1 0.1c0 6.3-4.2 9.8-8.8 9.8-4.5 0-8.7-3.6-8.7-9.9 0-6.3 4.2-9.6 8.7-9.6 4.6 0 8.8 3.5 8.8 9.7zm41.8 7.1c-0.3-12.1-18.6-8.3-18.6-14.4 0-1.9 1.6-3.1 4.7-3.1 3.3 0 5.3 1.7 5.6 4.3h8c-0.5-6.6-5.4-11-13.4-11-8.2 0-13.1 4.5-13.1 10 0 12.1 18.8 8.3 18.8 14.2 0 2-1.8 3.4-5.1 3.4-3.4 0-5.7-1.9-6-4.4h-8.4c0.3 6.2 6.1 11 14.4 11 8.1 0 13.1-4.3 13.1-10zm7.3 9.5h8.3v-33.1h-8.3zm4.2-37.1c2.9 0 5.1-2.1 5.1-4.9 0-2.7-2.2-4.9-5.1-4.9-3 0-5.1 2.2-5.1 4.9 0 2.8 2.1 4.9 5.1 4.9zm37.5 27.6c-0.3-12.1-18.6-8.3-18.6-14.4 0-1.9 1.6-3.2 4.7-3.2 3.3 0 5.3 1.8 5.6 4.4h8c-0.5-6.6-5.4-11-13.4-11-8.2 0-13.1 4.4-13.1 9.9 0 12.2 18.8 8.4 18.8 14.3 0 1.9-1.8 3.4-5.1 3.4-3.4 0-5.7-1.9-6-4.4h-8.4c0.3 6.2 6.1 11 14.4 11 8.1 0 13.1-4.3 13.1-10zm45.5-32.3h-24.2v41.8h24.2v-6.8h-15.9v-11.1h14.1v-6.6h-14.1v-10.5h15.9zm26.1 41.8h9.4l-11-16.6 10.9-16.5h-9l-6.1 10.2-6.7-10.2h-9.5l11 16.5-10.9 16.6h9l6-10.3zm22.1-28.3v-4.8h-8.4v48.9h8.4v-20.5c2 2.7 5.8 5.2 11 5.2 8.4 0 15.1-6.8 15.1-17.2 0-10.3-6.7-17-15.1-17-5.2 0-9 2.6-11 5.4zm17.5 11.6c0 6.3-4.2 9.9-8.8 9.9-4.4 0-8.7-3.5-8.7-9.8 0-6.2 4.3-9.7 8.7-9.7 4.6 0 8.8 3.3 8.8 9.6zm45.1 6.3h-9c-1.1 2.2-3.1 4-6.7 4-4.2 0-7.5-2.7-7.9-7.6h24.2c0.2-1.1 0.2-2.2 0.2-3.3 0-9.8-6.7-16.4-16.3-16.4-9.8 0-16.6 6.7-16.6 17.1 0 10.4 7 17.1 16.6 17.1 8.2 0 13.7-4.8 15.5-10.9zm-15.7-16.4c4.3 0 7.7 2.8 7.9 7.1h-15.8c0.7-4.5 3.9-7.1 7.9-7.1zm31.1 10.3c0-6.4 3-8.3 8-8.3h2.2v-8.8c-4.6 0-8.1 2.2-10.2 5.6v-5.1h-8.4v33.1h8.4zm17 6.2c0 7.6 4.2 10.3 10.5 10.3h5.3v-7.1h-3.9c-2.6 0-3.5-0.9-3.5-3.1v-16h7.4v-6.9h-7.4v-8.2h-8.4v8.2h-4v6.9h4z"/></svg>